<svg width="98" height="52" viewBox="0 0 98 52" fill="none" xmlns="http://www.w3.org/2000/svg">
<g clip-path="url(#clip0_122_553)">
<path d="M6.61843 35.4467C6.61843 35.4467 11.3284 35.5933 13.9588 39.1867L14.8464 40.79C14.8464 40.79 8.45838 41.2434 6.47266 35.4333" fill="#FBB03B"/>
<path d="M12.074 35.5133C5.8188 36.13 4.3125 29.91 4.3125 29.91C4.3125 29.91 8.04099 29.5066 11.9671 35.0466L12.074 35.5133Z" fill="#FBB03B"/>
<path d="M8.3426 24.5199L7.99599 25.0933C1.76672 25.4099 1.45898 18.9999 1.45898 18.9999C1.45898 18.9999 6.11717 18.0766 8.31345 24.8199" fill="#FBB03B"/>
<path d="M6.46397 19.1767C0.927926 20.0134 0.833984 12.8667 0.833984 12.8667C0.833984 12.8667 5.22654 13.2867 6.62594 19.04L6.46721 19.1767H6.46397Z" fill="#FBB03B"/>
<path d="M15.1244 40.97C20.2135 38.57 16.4979 32.29 16.4979 32.29C16.4979 32.29 12.3645 35.54 14.8588 40.64L15.1244 40.97Z" fill="#FBB03B"/>
<path d="M11.9017 34.9634L12.3001 35.4567C16.8028 33 14.26 26.8334 14.26 26.8334C14.26 26.8334 10.2108 29.18 12.0345 35.1267" fill="#FBB03B"/>
<path d="M10.0352 30.3033C15.0691 28.5067 12.6072 21.4333 12.6072 21.4333C12.6072 21.4333 8.58069 25.15 9.92826 29.8367L10.0352 30.3033Z" fill="#FBB03B"/>
<path d="M8.44829 24.9867C13.8839 22.0133 11.4998 15.7067 11.4998 15.7067C11.4998 15.7067 6.88692 19.3667 8.18266 24.6567L8.44829 24.9867Z" fill="#FBB03B"/>
<path d="M6.07399 13.67C11.163 11.27 10.1912 4.03662 10.1912 4.03662C10.1912 4.03662 5.23176 8.27329 5.80837 13.34L6.07399 13.67Z" fill="#FBB03B"/>
<path d="M4.34453 0.136667C4.34453 0.136667 1.64291 7.17 5.23211 9.94333L5.81843 10C8.70145 4.2 4.50326 0 4.50326 0" fill="#FBB03B"/>
<path d="M5.48833 13.6133C-0.60812 14.0966 0.020313 7.16663 0.020313 7.16663C0.020313 7.16663 4.51653 8.05329 5.67945 13.1766L5.49157 13.6133H5.48833Z" fill="#FBB03B"/>
<path d="M6.68074 19.0599L6.88806 19.3699C11.8443 16.8066 10.393 9.98328 10.393 9.98328C10.393 9.98328 5.87414 14.3799 6.603 18.5066C6.61595 18.5866 6.63215 18.6633 6.65159 18.7433L6.75849 19.2099" fill="#FBB03B"/>
<path d="M9.86356 30.1466L9.75666 30.4066C3.2067 30.9966 2.47461 24.3933 2.47461 24.3933C2.47461 24.3933 7.05181 24.3766 9.91539 30.27" fill="#FBB03B"/>
<path d="M5.52332 9.97339C5.52332 9.97339 5.39374 13.9467 6.65061 18.7401C7.46045 21.8267 8.36423 25.7567 9.6632 29.5101C10.2236 31.1301 10.9589 32.6434 11.5971 34.2534C12.1899 35.7534 13.084 37.1167 13.7189 38.5567C14.3991 40.1001 15.1604 41.4367 15.8406 42.8601C16.3816 43.9934 17.0846 45.0334 17.619 46.0667C18.1633 47.1201 18.7755 47.9101 19.2905 48.8101C19.6177 49.3801 20.0129 49.8934 20.3239 50.4267C20.5928 50.8867 20.907 51.5501 21.2277 51.8801" stroke="#F7931E" stroke-width="0.99" stroke-miterlimit="10"/>
<path d="M91.3822 35.4467C91.3822 35.4467 86.6722 35.5933 84.0419 39.1867L83.1543 40.79C83.1543 40.79 89.5423 41.2434 91.528 35.4333" fill="#FBB03B"/>
<path d="M85.9238 35.5133C92.179 36.13 93.6853 29.91 93.6853 29.91C93.6853 29.91 89.9568 29.5066 86.0307 35.0466L85.9238 35.5133Z" fill="#FBB03B"/>
<path d="M89.6562 24.5199L90.0029 25.0933C96.2321 25.4099 96.5399 18.9999 96.5399 18.9999C96.5399 18.9999 91.8817 18.0766 89.6854 24.8199" fill="#FBB03B"/>
<path d="M91.5389 19.1767C97.0782 20.0134 97.1689 12.8667 97.1689 12.8667C97.1689 12.8667 92.7764 13.2867 91.377 19.04L91.5357 19.1767H91.5389Z" fill="#FBB03B"/>
<path d="M82.8757 40.97C77.7867 38.57 81.5023 32.29 81.5023 32.29C81.5023 32.29 85.6357 35.54 83.1414 40.64L82.8757 40.97Z" fill="#FBB03B"/>
<path d="M86.0971 34.9634L85.6986 35.4567C81.1959 33 83.7388 26.8334 83.7388 26.8334C83.7388 26.8334 87.788 29.18 85.9643 35.1267" fill="#FBB03B"/>
<path d="M87.965 30.3033C82.931 28.5067 85.393 21.4333 85.393 21.4333C85.393 21.4333 89.4195 25.15 88.0719 29.8367L87.965 30.3033Z" fill="#FBB03B"/>
<path d="M89.5526 24.9867C84.1169 22.0133 86.5011 15.7067 86.5011 15.7067C86.5011 15.7067 91.1139 19.3667 89.8182 24.6567L89.5526 24.9867Z" fill="#FBB03B"/>
<path d="M91.9278 13.67C86.8387 11.27 87.8106 4.03662 87.8106 4.03662C87.8106 4.03662 92.77 8.27329 92.1934 13.34L91.9278 13.67Z" fill="#FBB03B"/>
<path d="M93.6569 0.136667C93.6569 0.136667 96.3585 7.17 92.7693 9.94333L92.183 10C89.2967 4.2 93.4949 0 93.4949 0" fill="#FBB03B"/>
<path d="M92.5101 13.6133C98.6066 14.0933 97.9814 7.16663 97.9814 7.16663C97.9814 7.16663 93.4852 8.05329 92.3223 13.1766L92.5101 13.6133Z" fill="#FBB03B"/>
<path d="M91.3204 19.0599L91.1131 19.3699C86.1569 16.8066 87.6081 9.98328 87.6081 9.98328C87.6081 9.98328 92.127 14.3799 91.3981 18.5066C91.3852 18.5866 91.369 18.6633 91.3496 18.7433L91.2427 19.2099" fill="#FBB03B"/>
<path d="M88.1378 30.1466L88.2447 30.4066C94.7946 30.9966 95.5267 24.3933 95.5267 24.3933C95.5267 24.3933 90.9495 24.3766 88.0859 30.27" fill="#FBB03B"/>
<path d="M92.4778 9.97339C92.4778 9.97339 92.6074 13.9467 91.3505 18.7401C90.5407 21.8267 89.6369 25.7567 88.3379 29.5101C87.7775 31.1301 87.0422 32.6434 86.404 34.2534C85.8112 35.7534 84.9172 37.1167 84.2822 38.5567C83.602 40.1001 82.8407 41.4367 82.1605 42.8601C81.6195 43.9934 80.9166 45.0334 80.3821 46.0667C79.8379 47.1201 79.2256 47.9101 78.7106 48.8101C78.3834 49.3801 77.9882 49.8934 77.6772 50.4267C77.4083 50.8867 77.0941 51.5501 76.7734 51.8801" stroke="#F7931E" stroke-width="0.99" stroke-miterlimit="10"/>
<path d="M29.6309 29.49C29.6309 29.49 17.3051 33.26 20.3015 45.2C20.3015 45.2 21.2701 47.03 28.2153 47.3267C35.1604 47.6234 73.0997 47.09 73.0997 47.09C73.0997 47.09 78.3798 45.5267 76.1641 40.06C76.1641 40.06 75.8013 31.81 62.8342 25.5334C62.8342 25.5334 65.6719 32.8134 63.8481 34.8834C63.8481 34.8834 60.1131 23.9867 57.0163 23.1367C57.0163 23.1367 52.559 21.5167 48.7106 22.0667C48.7106 22.0667 54.3568 28.75 53.4466 34.08C53.4466 34.08 47.2788 23.08 43.4726 22.56C43.4726 22.56 32.6499 23.53 32.1576 27.09C32.1576 27.09 39.2064 33.4767 39.715 38.15L29.6276 29.4867L29.6309 29.49Z" fill="#C69C6D"/>
</g>
<defs>
<clipPath id="clip0_122_553">
<rect width="98" height="52" fill="white"/>
</clipPath>
</defs>
</svg>
