<svg width="120" height="70" viewBox="0 0 120 70" fill="none" xmlns="http://www.w3.org/2000/svg">
<g clip-path="url(#clip0_122_553)">
<path d="M12.6184 35.4467C12.6184 35.4467 17.3284 35.5933 19.9588 39.1867L20.8464 40.79C20.8464 40.79 14.4584 41.2434 12.4727 35.4333" fill="#FBB03B"/>
<path d="M18.074 35.5133C11.8188 36.13 10.3125 29.91 10.3125 29.91C10.3125 29.91 14.041 29.5066 17.9671 35.0466L18.074 35.5133Z" fill="#FBB03B"/>
<path d="M14.3426 24.5199L13.996 25.0933C7.76672 25.4099 7.45898 18.9999 7.45898 18.9999C7.45898 18.9999 12.1172 18.0766 14.3134 24.8199" fill="#FBB03B"/>
<path d="M12.464 19.1767C6.92793 20.0134 6.83398 12.8667 6.83398 12.8667C6.83398 12.8667 11.2265 13.2867 12.6259 19.04L12.4672 19.1767H12.464Z" fill="#FBB03B"/>
<path d="M21.1244 40.97C26.2135 38.57 22.4979 32.29 22.4979 32.29C22.4979 32.29 18.3645 35.54 20.8588 40.64L21.1244 40.97Z" fill="#FBB03B"/>
<path d="M17.9017 34.9634L18.3001 35.4567C22.8028 33 20.26 26.8334 20.26 26.8334C20.26 26.8334 16.2108 29.18 18.0345 35.1267" fill="#FBB03B"/>
<path d="M16.0352 30.3033C21.0691 28.5067 18.6072 21.4333 18.6072 21.4333C18.6072 21.4333 14.5807 25.15 15.9283 29.8367L16.0352 30.3033Z" fill="#FBB03B"/>
<path d="M14.4483 24.9867C19.8839 22.0133 17.4998 15.7067 17.4998 15.7067C17.4998 15.7067 12.8869 19.3667 14.1827 24.6567L14.4483 24.9867Z" fill="#FBB03B"/>
<path d="M12.074 13.67C17.163 11.27 16.1912 4.03662 16.1912 4.03662C16.1912 4.03662 11.2318 8.27329 11.8084 13.34L12.074 13.67Z" fill="#FBB03B"/>
<path d="M10.3445 0.136667C10.3445 0.136667 7.64291 7.17 11.2321 9.94333L11.8184 10C14.7015 4.2 10.5033 0 10.5033 0" fill="#FBB03B"/>
<path d="M11.4883 13.6133C5.39188 14.0966 6.02031 7.16663 6.02031 7.16663C6.02031 7.16663 10.5165 8.05329 11.6795 13.1766L11.4916 13.6133H11.4883Z" fill="#FBB03B"/>
<path d="M12.6807 19.0599L12.8881 19.3699C17.8443 16.8066 16.393 9.98328 16.393 9.98328C16.393 9.98328 11.8741 14.3799 12.603 18.5066C12.616 18.5866 12.6322 18.6633 12.6516 18.7433L12.7585 19.2099" fill="#FBB03B"/>
<path d="M15.8636 30.1466L15.7567 30.4066C9.2067 30.9966 8.47461 24.3933 8.47461 24.3933C8.47461 24.3933 13.0518 24.3766 15.9154 30.27" fill="#FBB03B"/>
<path d="M11.5233 9.97339C11.5233 9.97339 11.3937 13.9467 12.6506 18.7401C13.4604 21.8267 14.3642 25.7567 15.6632 29.5101C16.2236 31.1301 16.9589 32.6434 17.5971 34.2534C18.1899 35.7534 19.084 37.1167 19.7189 38.5567C20.3991 40.1001 21.1604 41.4367 21.8406 42.8601C22.3816 43.9934 23.0846 45.0334 23.619 46.0667C24.1633 47.1201 24.7755 47.9101 25.2905 48.8101C25.6177 49.3801 26.0129 49.8934 26.3239 50.4267C26.5928 50.8867 26.907 51.5501 27.2277 51.8801" stroke="#F7931E" stroke-width="0.99" stroke-miterlimit="10"/>
<path d="M97.3822 35.4467C97.3822 35.4467 92.6722 35.5933 90.0419 39.1867L89.1543 40.79C89.1543 40.79 95.5423 41.2434 97.528 35.4333" fill="#FBB03B"/>
<path d="M91.9238 35.5133C98.179 36.13 99.6853 29.91 99.6853 29.91C99.6853 29.91 95.9568 29.5066 92.0307 35.0466L91.9238 35.5133Z" fill="#FBB03B"/>
<path d="M95.6562 24.5199L96.0029 25.0933C102.232 25.4099 102.54 18.9999 102.54 18.9999C102.54 18.9999 97.8817 18.0766 95.6854 24.8199" fill="#FBB03B"/>
<path d="M97.5389 19.1767C103.078 20.0134 103.169 12.8667 103.169 12.8667C103.169 12.8667 98.7764 13.2867 97.377 19.04L97.5357 19.1767H97.5389Z" fill="#FBB03B"/>
<path d="M88.8757 40.97C83.7867 38.57 87.5023 32.29 87.5023 32.29C87.5023 32.29 91.6357 35.54 89.1414 40.64L88.8757 40.97Z" fill="#FBB03B"/>
<path d="M92.0971 34.9634L91.6986 35.4567C87.1959 33 89.7388 26.8334 89.7388 26.8334C89.7388 26.8334 93.788 29.18 91.9643 35.1267" fill="#FBB03B"/>
<path d="M93.965 30.3033C88.931 28.5067 91.393 21.4333 91.393 21.4333C91.393 21.4333 95.4195 25.15 94.0719 29.8367L93.965 30.3033Z" fill="#FBB03B"/>
<path d="M95.5526 24.9867C90.1169 22.0133 92.5011 15.7067 92.5011 15.7067C92.5011 15.7067 97.1139 19.3667 95.8182 24.6567L95.5526 24.9867Z" fill="#FBB03B"/>
<path d="M97.9278 13.67C92.8387 11.27 93.8106 4.03662 93.8106 4.03662C93.8106 4.03662 98.77 8.27329 98.1934 13.34L97.9278 13.67Z" fill="#FBB03B"/>
<path d="M99.6569 0.136667C99.6569 0.136667 102.359 7.17 98.7693 9.94333L98.183 10C95.2967 4.2 99.4949 0 99.4949 0" fill="#FBB03B"/>
<path d="M98.5101 13.6133C104.607 14.0933 103.981 7.16663 103.981 7.16663C103.981 7.16663 99.4852 8.05329 98.3223 13.1766L98.5101 13.6133Z" fill="#FBB03B"/>
<path d="M97.3204 19.0599L97.1131 19.3699C92.1569 16.8066 93.6081 9.98328 93.6081 9.98328C93.6081 9.98328 98.127 14.3799 97.3981 18.5066C97.3852 18.5866 97.369 18.6633 97.3496 18.7433L97.2427 19.2099" fill="#FBB03B"/>
<path d="M94.1378 30.1466L94.2447 30.4066C100.795 30.9966 101.527 24.3933 101.527 24.3933C101.527 24.3933 96.9495 24.3766 94.0859 30.27" fill="#FBB03B"/>
<path d="M98.4778 9.97339C98.4778 9.97339 98.6074 13.9467 97.3505 18.7401C96.5407 21.8267 95.6369 25.7567 94.3379 29.5101C93.7775 31.1301 93.0422 32.6434 92.404 34.2534C91.8112 35.7534 90.9172 37.1167 90.2822 38.5567C89.602 40.1001 88.8407 41.4367 88.1605 42.8601C87.6195 43.9934 86.9166 45.0334 86.3821 46.0667C85.8379 47.1201 85.2256 47.9101 84.7106 48.8101C84.3834 49.3801 83.9882 49.8934 83.6772 50.4267C83.4083 50.8867 83.0941 51.5501 82.7734 51.8801" stroke="#F7931E" stroke-width="0.99" stroke-miterlimit="10"/>
<path d="M35.6309 29.49C35.6309 29.49 23.3051 33.26 26.3015 45.2C26.3015 45.2 27.2701 47.03 34.2153 47.3267C41.1604 47.6234 79.0997 47.09 79.0997 47.09C79.0997 47.09 84.3798 45.5267 82.1641 40.06C82.1641 40.06 81.8013 31.81 68.8342 25.5334C68.8342 25.5334 71.6719 32.8134 69.8481 34.8834C69.8481 34.8834 66.1131 23.9867 63.0163 23.1367C63.0163 23.1367 58.559 21.5167 54.7106 22.0667C54.7106 22.0667 60.3568 28.75 59.4466 34.08C59.4466 34.08 53.2788 23.08 49.4726 22.56C49.4726 22.56 38.6499 23.53 38.1576 27.09C38.1576 27.09 45.2064 33.4767 45.715 38.15L35.6276 29.4867L35.6309 29.49Z" fill="#C69C6D"/>
</g>
<path d="M2.626 55.9V65H1.781V55.9H2.626ZM6.136 64.597V65H2.587V64.597H6.136ZM6.929 62.894L6.175 65H4.017L4.485 64.597C4.94433 64.597 5.317 64.5277 5.603 64.389C5.89767 64.2417 6.136 64.038 6.318 63.778C6.5 63.518 6.66033 63.2233 6.799 62.894H6.929ZM1.82 64.051V65H0.78V64.87C0.78 64.87 0.806 64.87 0.858 64.87C0.918667 64.87 0.949 64.87 0.949 64.87C1.17433 64.87 1.365 64.792 1.521 64.636C1.68567 64.4713 1.77233 64.2763 1.781 64.051H1.82ZM1.82 56.849H1.781C1.77233 56.6237 1.68567 56.433 1.521 56.277C1.365 56.1123 1.17433 56.03 0.949 56.03C0.949 56.03 0.918667 56.03 0.858 56.03C0.806 56.03 0.78 56.03 0.78 56.03V55.9H1.82V56.849ZM2.587 56.849V55.9H3.627V56.03C3.61833 56.03 3.588 56.03 3.536 56.03C3.484 56.03 3.458 56.03 3.458 56.03C3.23267 56.03 3.03767 56.1123 2.873 56.277C2.717 56.433 2.63467 56.6237 2.626 56.849H2.587ZM9.7828 57.2V65H8.9508V57.2H9.7828ZM13.2798 64.597L13.2538 65H9.7568V64.597H13.2798ZM12.6688 60.905V61.295H9.7568V60.905H12.6688ZM13.2668 57.2V57.603H9.7568V57.2H13.2668ZM14.0078 63.141L13.2928 65H11.3168L11.7588 64.597C12.1921 64.597 12.5388 64.5363 12.7988 64.415C13.0675 64.285 13.2841 64.1117 13.4488 63.895C13.6135 63.6697 13.7565 63.4183 13.8778 63.141H14.0078ZM12.6688 61.269V62.01H12.5258V61.841C12.5258 61.6937 12.4825 61.568 12.3958 61.464C12.3091 61.3513 12.1748 61.295 11.9928 61.295V61.269H12.6688ZM12.6688 60.19V60.931H11.9928V60.905C12.1748 60.905 12.3091 60.853 12.3958 60.749C12.4825 60.6363 12.5258 60.5063 12.5258 60.359V60.19H12.6688ZM13.2668 57.564V58.461H13.1238V58.266C13.1238 58.084 13.0631 57.928 12.9418 57.798C12.8291 57.668 12.6731 57.603 12.4738 57.603V57.564H13.2668ZM13.2668 56.992V57.33L11.7848 57.2C12.0535 57.2 12.3395 57.1783 12.6428 57.135C12.9461 57.083 13.1541 57.0353 13.2668 56.992ZM8.9768 64.168L9.1458 65H8.0148V64.87C8.0148 64.87 8.04514 64.87 8.1058 64.87C8.16647 64.87 8.1968 64.87 8.1968 64.87C8.41347 64.87 8.59114 64.8007 8.7298 64.662C8.86847 64.5233 8.94214 64.3587 8.9508 64.168H8.9768ZM8.9768 58.019H8.9508C8.94214 57.8197 8.86847 57.655 8.7298 57.525C8.59114 57.395 8.41347 57.33 8.1968 57.33C8.1968 57.33 8.16647 57.33 8.1058 57.33C8.04514 57.33 8.0148 57.33 8.0148 57.33V57.2H9.1458L8.9768 58.019ZM19.3105 57.018C19.7092 57.018 20.0818 57.0483 20.4285 57.109C20.7838 57.161 21.1175 57.2477 21.4295 57.369C21.7502 57.4817 22.0535 57.629 22.3395 57.811L22.6255 59.644H22.5085C22.3872 59.1327 22.1878 58.7123 21.9105 58.383C21.6418 58.0537 21.2908 57.811 20.8575 57.655C20.4242 57.4903 19.9042 57.408 19.2975 57.408C18.6388 57.408 18.0582 57.5597 17.5555 57.863C17.0615 58.1577 16.6758 58.5823 16.3985 59.137C16.1212 59.683 15.9825 60.3373 15.9825 61.1C15.9825 61.854 16.1212 62.5083 16.3985 63.063C16.6758 63.6177 17.0658 64.0467 17.5685 64.35C18.0712 64.6447 18.6518 64.792 19.3105 64.792C19.6745 64.792 20.0212 64.753 20.3505 64.675C20.6798 64.597 20.9962 64.4757 21.2995 64.311C21.6115 64.1377 21.9018 63.921 22.1705 63.661L22.1835 61.932C22.1922 61.7673 22.1402 61.6417 22.0275 61.555C21.9235 61.4683 21.7762 61.425 21.5855 61.425H21.4035V61.295H23.7825V61.425H23.6005C23.2105 61.425 23.0155 61.5983 23.0155 61.945V63.505C22.8162 63.7563 22.5432 64.012 22.1965 64.272C21.8498 64.532 21.4338 64.7487 20.9485 64.922C20.4718 65.0953 19.9258 65.182 19.3105 65.182C18.4525 65.1733 17.7028 65.0043 17.0615 64.675C16.4288 64.3457 15.9348 63.8777 15.5795 63.271C15.2242 62.6643 15.0465 61.9407 15.0465 61.1C15.0465 60.2507 15.2242 59.5227 15.5795 58.916C15.9348 58.3093 16.4332 57.8413 17.0745 57.512C17.7158 57.1827 18.4612 57.018 19.3105 57.018ZM28.4129 57.018L31.9879 64.922H30.9609L28.1919 58.175L28.4129 57.018ZM25.9039 64.051C25.8086 64.311 25.8216 64.5147 25.9429 64.662C26.0643 64.8007 26.2029 64.87 26.3589 64.87H26.4629V65H23.9799V64.87C23.9799 64.87 23.9973 64.87 24.0319 64.87C24.0666 64.87 24.0839 64.87 24.0839 64.87C24.2659 64.87 24.4523 64.8093 24.6429 64.688C24.8336 64.558 24.9983 64.3457 25.1369 64.051H25.9039ZM28.4129 57.018L28.5039 57.915L25.5269 64.961H24.7079L27.7889 58.357C27.7889 58.357 27.8106 58.305 27.8539 58.201C27.9059 58.097 27.9623 57.9713 28.0229 57.824C28.0923 57.668 28.1529 57.5163 28.2049 57.369C28.2569 57.2217 28.2873 57.1047 28.2959 57.018H28.4129ZM29.9469 61.971V62.361H26.5019V61.971H29.9469ZM30.6099 64.051H31.5979C31.7279 64.3457 31.8883 64.558 32.0789 64.688C32.2696 64.8093 32.4516 64.87 32.6249 64.87C32.6249 64.87 32.6423 64.87 32.6769 64.87C32.7116 64.87 32.7289 64.87 32.7289 64.87V65H30.0639V64.87H30.1679C30.3153 64.87 30.4496 64.8007 30.5709 64.662C30.6923 64.5147 30.7053 64.311 30.6099 64.051ZM37.722 57.2C38.58 57.2 39.321 57.356 39.945 57.668C40.569 57.98 41.05 58.4307 41.388 59.02C41.726 59.6007 41.895 60.294 41.895 61.1C41.895 61.906 41.726 62.5993 41.388 63.18C41.05 63.7607 40.569 64.2113 39.945 64.532C39.321 64.844 38.58 65 37.722 65H34.953L34.927 64.61C35.5337 64.61 36.0407 64.61 36.448 64.61C36.864 64.61 37.1804 64.61 37.397 64.61C37.6137 64.61 37.722 64.61 37.722 64.61C38.7274 64.61 39.516 64.298 40.088 63.674C40.6687 63.0413 40.959 62.1833 40.959 61.1C40.959 60.0167 40.6687 59.163 40.088 58.539C39.516 57.9063 38.7274 57.59 37.722 57.59C37.722 57.59 37.6094 57.59 37.384 57.59C37.1587 57.59 36.8294 57.59 36.396 57.59C35.9627 57.59 35.4297 57.59 34.797 57.59V57.2H37.722ZM35.135 57.2V65H34.29V57.2H35.135ZM34.316 64.155V65H33.38V64.87C33.38 64.87 33.406 64.87 33.458 64.87C33.5187 64.87 33.549 64.87 33.549 64.87C33.757 64.87 33.9304 64.8007 34.069 64.662C34.2077 64.5147 34.2814 64.3457 34.29 64.155H34.316ZM34.316 58.045H34.29C34.2814 57.837 34.2034 57.668 34.056 57.538C33.9174 57.3993 33.744 57.33 33.536 57.33C33.536 57.33 33.51 57.33 33.458 57.33C33.406 57.33 33.38 57.33 33.38 57.33V57.2H34.316V58.045ZM47.573 57.018C48.1797 57.018 48.7473 57.1177 49.276 57.317C49.8133 57.5077 50.2813 57.785 50.68 58.149C51.0873 58.513 51.4037 58.9463 51.629 59.449C51.8543 59.943 51.967 60.4933 51.967 61.1C51.967 61.7067 51.8543 62.2613 51.629 62.764C51.4037 63.258 51.0873 63.687 50.68 64.051C50.2813 64.415 49.8133 64.6967 49.276 64.896C48.7473 65.0867 48.1797 65.182 47.573 65.182C46.9663 65.182 46.3987 65.0867 45.87 64.896C45.3413 64.6967 44.8733 64.415 44.466 64.051C44.0673 63.687 43.7553 63.258 43.53 62.764C43.3047 62.2613 43.192 61.7067 43.192 61.1C43.192 60.4933 43.3047 59.943 43.53 59.449C43.7553 58.9463 44.0673 58.513 44.466 58.149C44.8733 57.785 45.3413 57.5077 45.87 57.317C46.3987 57.1177 46.9663 57.018 47.573 57.018ZM47.573 64.792C48.2143 64.792 48.795 64.636 49.315 64.324C49.835 64.012 50.2467 63.5787 50.55 63.024C50.8533 62.4693 51.005 61.828 51.005 61.1C51.005 60.3633 50.8533 59.722 50.55 59.176C50.2467 58.6213 49.835 58.188 49.315 57.876C48.795 57.564 48.2143 57.408 47.573 57.408C46.9403 57.408 46.364 57.564 45.844 57.876C45.324 58.188 44.9123 58.6213 44.609 59.176C44.3057 59.722 44.154 60.3633 44.154 61.1C44.154 61.828 44.3057 62.4693 44.609 63.024C44.9123 63.5787 45.324 64.012 45.844 64.324C46.364 64.636 46.9403 64.792 47.573 64.792ZM60.9164 57.2C61.7744 57.2 62.5154 57.356 63.1394 57.668C63.7634 57.98 64.2444 58.4307 64.5824 59.02C64.9204 59.6007 65.0894 60.294 65.0894 61.1C65.0894 61.906 64.9204 62.5993 64.5824 63.18C64.2444 63.7607 63.7634 64.2113 63.1394 64.532C62.5154 64.844 61.7744 65 60.9164 65H58.1474L58.1214 64.61C58.728 64.61 59.235 64.61 59.6424 64.61C60.0584 64.61 60.3747 64.61 60.5914 64.61C60.808 64.61 60.9164 64.61 60.9164 64.61C61.9217 64.61 62.7104 64.298 63.2824 63.674C63.863 63.0413 64.1534 62.1833 64.1534 61.1C64.1534 60.0167 63.863 59.163 63.2824 58.539C62.7104 57.9063 61.9217 57.59 60.9164 57.59C60.9164 57.59 60.8037 57.59 60.5784 57.59C60.353 57.59 60.0237 57.59 59.5904 57.59C59.157 57.59 58.624 57.59 57.9914 57.59V57.2H60.9164ZM58.3294 57.2V65H57.4844V57.2H58.3294ZM57.5104 64.155V65H56.5744V64.87C56.5744 64.87 56.6004 64.87 56.6524 64.87C56.713 64.87 56.7434 64.87 56.7434 64.87C56.9514 64.87 57.1247 64.8007 57.2634 64.662C57.402 64.5147 57.4757 64.3457 57.4844 64.155H57.5104ZM57.5104 58.045H57.4844C57.4757 57.837 57.3977 57.668 57.2504 57.538C57.1117 57.3993 56.9384 57.33 56.7304 57.33C56.7304 57.33 56.7044 57.33 56.6524 57.33C56.6004 57.33 56.5744 57.33 56.5744 57.33V57.2H57.5104V58.045ZM70.7673 57.018C71.374 57.018 71.9417 57.1177 72.4703 57.317C73.0077 57.5077 73.4757 57.785 73.8743 58.149C74.2817 58.513 74.598 58.9463 74.8233 59.449C75.0487 59.943 75.1613 60.4933 75.1613 61.1C75.1613 61.7067 75.0487 62.2613 74.8233 62.764C74.598 63.258 74.2817 63.687 73.8743 64.051C73.4757 64.415 73.0077 64.6967 72.4703 64.896C71.9417 65.0867 71.374 65.182 70.7673 65.182C70.1607 65.182 69.593 65.0867 69.0643 64.896C68.5357 64.6967 68.0677 64.415 67.6603 64.051C67.2617 63.687 66.9497 63.258 66.7243 62.764C66.499 62.2613 66.3863 61.7067 66.3863 61.1C66.3863 60.4933 66.499 59.943 66.7243 59.449C66.9497 58.9463 67.2617 58.513 67.6603 58.149C68.0677 57.785 68.5357 57.5077 69.0643 57.317C69.593 57.1177 70.1607 57.018 70.7673 57.018ZM70.7673 64.792C71.4087 64.792 71.9893 64.636 72.5093 64.324C73.0293 64.012 73.441 63.5787 73.7443 63.024C74.0477 62.4693 74.1993 61.828 74.1993 61.1C74.1993 60.3633 74.0477 59.722 73.7443 59.176C73.441 58.6213 73.0293 58.188 72.5093 57.876C71.9893 57.564 71.4087 57.408 70.7673 57.408C70.1347 57.408 69.5583 57.564 69.0383 57.876C68.5183 58.188 68.1067 58.6213 67.8033 59.176C67.5 59.722 67.3483 60.3633 67.3483 61.1C67.3483 61.828 67.5 62.4693 67.8033 63.024C68.1067 63.5787 68.5183 64.012 69.0383 64.324C69.5583 64.636 70.1347 64.792 70.7673 64.792ZM83.4997 55.939V65H82.6547V55.939H83.4997ZM86.8407 55.887V56.277H79.3137V55.887H86.8407ZM86.8407 56.238V57.291L86.7107 57.278V57.057C86.7107 56.8403 86.6327 56.6583 86.4767 56.511C86.3294 56.3637 86.1517 56.2857 85.9437 56.277V56.238H86.8407ZM86.8407 55.653V56.03L85.2547 55.887C85.4454 55.887 85.6447 55.874 85.8527 55.848C86.0694 55.822 86.2687 55.7917 86.4507 55.757C86.6327 55.7223 86.7627 55.6877 86.8407 55.653ZM82.6937 64.051V65H81.6537V64.87C81.6537 64.87 81.6797 64.87 81.7317 64.87C81.7924 64.87 81.8227 64.87 81.8227 64.87C82.048 64.87 82.2387 64.792 82.3947 64.636C82.5594 64.4713 82.646 64.2763 82.6547 64.051H82.6937ZM83.4607 64.051H83.4997C83.5084 64.2763 83.5907 64.4713 83.7467 64.636C83.9114 64.792 84.1064 64.87 84.3317 64.87C84.3317 64.87 84.3577 64.87 84.4097 64.87C84.4704 64.87 84.5007 64.87 84.5007 64.87V65H83.4607V64.051ZM80.2107 56.238V56.277C79.994 56.2857 79.812 56.3637 79.6647 56.511C79.5174 56.6583 79.4437 56.8403 79.4437 57.057V57.278L79.3137 57.291V56.238H80.2107ZM79.3137 55.653C79.4004 55.6877 79.5304 55.7223 79.7037 55.757C79.8857 55.7917 80.085 55.822 80.3017 55.848C80.5184 55.874 80.7177 55.887 80.8997 55.887L79.3137 56.03V55.653ZM89.3908 57.2H91.0678C91.4752 57.2 91.8392 57.2477 92.1598 57.343C92.4892 57.4383 92.7665 57.577 92.9918 57.759C93.2258 57.941 93.4035 58.162 93.5248 58.422C93.6462 58.682 93.7068 58.9767 93.7068 59.306C93.7068 59.67 93.6202 60.008 93.4468 60.32C93.2735 60.632 93.0308 60.8877 92.7188 61.087C92.4155 61.2863 92.0688 61.4077 91.6788 61.451C91.8262 61.5117 91.9952 61.646 92.1858 61.854C92.3852 62.062 92.5542 62.2657 92.6928 62.465C92.6928 62.465 92.7492 62.543 92.8618 62.699C92.9745 62.8463 93.1175 63.0327 93.2908 63.258C93.4728 63.4747 93.6505 63.6827 93.8238 63.882C94.0058 64.0813 94.1705 64.2547 94.3178 64.402C94.4738 64.5493 94.6385 64.6663 94.8118 64.753C94.9938 64.831 95.2018 64.87 95.4358 64.87V65H95.0328C94.5562 65 94.1618 64.9393 93.8498 64.818C93.5465 64.6967 93.2995 64.5493 93.1088 64.376C92.9182 64.194 92.7535 64.0207 92.6148 63.856C92.5802 63.8127 92.4978 63.7043 92.3678 63.531C92.2465 63.349 92.1122 63.154 91.9648 62.946C91.8175 62.738 91.6832 62.5517 91.5618 62.387C91.4405 62.2137 91.3668 62.1097 91.3408 62.075C91.1675 61.8497 90.9682 61.6503 90.7428 61.477C90.5175 61.295 90.2792 61.204 90.0278 61.204V61.074C90.0278 61.074 90.0972 61.0783 90.2358 61.087C90.3745 61.087 90.5522 61.0827 90.7688 61.074C91.0115 61.0653 91.2542 61.048 91.4968 61.022C91.7395 60.9873 91.9648 60.892 92.1728 60.736C92.3895 60.58 92.5585 60.32 92.6798 59.956C92.7145 59.8607 92.7405 59.748 92.7578 59.618C92.7752 59.488 92.7795 59.3537 92.7708 59.215C92.7622 58.9723 92.7145 58.7557 92.6278 58.565C92.5498 58.3743 92.4328 58.2097 92.2768 58.071C92.1295 57.9323 91.9518 57.824 91.7438 57.746C91.5358 57.668 91.3018 57.6247 91.0418 57.616C90.6345 57.5987 90.2792 57.5943 89.9758 57.603C89.6725 57.6117 89.5208 57.6117 89.5208 57.603C89.5208 57.5943 89.5078 57.5597 89.4818 57.499C89.4645 57.4297 89.4428 57.3647 89.4168 57.304C89.3995 57.2347 89.3908 57.2 89.3908 57.2ZM89.5468 57.2V65H88.7148V57.2H89.5468ZM88.7538 64.168L88.9098 65H87.8048V64.87C87.8048 64.87 87.8352 64.87 87.8958 64.87C87.9565 64.87 87.9868 64.87 87.9868 64.87C88.1948 64.87 88.3682 64.8007 88.5068 64.662C88.6455 64.5233 88.7192 64.3587 88.7278 64.168H88.7538ZM88.7538 58.019H88.7278C88.7192 57.8197 88.6455 57.655 88.5068 57.525C88.3682 57.395 88.1948 57.33 87.9868 57.33C87.9868 57.33 87.9565 57.33 87.8958 57.33C87.8352 57.33 87.8048 57.33 87.8048 57.33V57.2H88.9098L88.7538 58.019ZM89.5078 64.168H89.5468C89.5555 64.3587 89.6292 64.5233 89.7678 64.662C89.9065 64.8007 90.0798 64.87 90.2878 64.87C90.2878 64.87 90.3138 64.87 90.3658 64.87C90.4265 64.87 90.4568 64.87 90.4568 64.87L90.4698 65H89.3518L89.5078 64.168ZM97.8402 57.2V65H97.0212V57.2H97.8402ZM97.0602 64.168V65H95.9552V64.87C95.9552 64.87 95.9856 64.87 96.0462 64.87C96.1069 64.87 96.1372 64.87 96.1372 64.87C96.3799 64.87 96.5836 64.8007 96.7482 64.662C96.9216 64.5233 97.0126 64.3587 97.0212 64.168H97.0602ZM97.8012 64.168H97.8402C97.8489 64.3587 97.9356 64.5233 98.1002 64.662C98.2736 64.8007 98.4816 64.87 98.7242 64.87C98.7242 64.87 98.7502 64.87 98.8022 64.87C98.8629 64.87 98.8932 64.87 98.8932 64.87L98.9062 65H97.8012V64.168ZM97.8012 58.032V57.2H98.9062L98.8932 57.33C98.8932 57.33 98.8629 57.33 98.8022 57.33C98.7502 57.33 98.7242 57.33 98.7242 57.33C98.4816 57.33 98.2736 57.3993 98.1002 57.538C97.9356 57.668 97.8489 57.8327 97.8402 58.032H97.8012ZM97.0602 58.032H97.0212C97.0126 57.8327 96.9216 57.668 96.7482 57.538C96.5836 57.3993 96.3799 57.33 96.1372 57.33C96.1286 57.33 96.0939 57.33 96.0332 57.33C95.9812 57.33 95.9552 57.33 95.9552 57.33V57.2H97.0602V58.032ZM104.331 57.018C104.73 57.018 105.102 57.0483 105.449 57.109C105.804 57.161 106.138 57.2477 106.45 57.369C106.771 57.4817 107.074 57.629 107.36 57.811L107.646 59.644H107.529C107.408 59.1327 107.208 58.7123 106.931 58.383C106.662 58.0537 106.311 57.811 105.878 57.655C105.445 57.4903 104.925 57.408 104.318 57.408C103.659 57.408 103.079 57.5597 102.576 57.863C102.082 58.1577 101.696 58.5823 101.419 59.137C101.142 59.683 101.003 60.3373 101.003 61.1C101.003 61.854 101.142 62.5083 101.419 63.063C101.696 63.6177 102.086 64.0467 102.589 64.35C103.092 64.6447 103.672 64.792 104.331 64.792C104.695 64.792 105.042 64.753 105.371 64.675C105.7 64.597 106.017 64.4757 106.32 64.311C106.632 64.1377 106.922 63.921 107.191 63.661L107.204 61.932C107.213 61.7673 107.161 61.6417 107.048 61.555C106.944 61.4683 106.797 61.425 106.606 61.425H106.424V61.295H108.803V61.425H108.621C108.231 61.425 108.036 61.5983 108.036 61.945V63.505C107.837 63.7563 107.564 64.012 107.217 64.272C106.87 64.532 106.454 64.7487 105.969 64.922C105.492 65.0953 104.946 65.182 104.331 65.182C103.473 65.1733 102.723 65.0043 102.082 64.675C101.449 64.3457 100.955 63.8777 100.6 63.271C100.245 62.6643 100.067 61.9407 100.067 61.1C100.067 60.2507 100.245 59.5227 100.6 58.916C100.955 58.3093 101.454 57.8413 102.095 57.512C102.736 57.1827 103.482 57.018 104.331 57.018ZM114.096 57.018C114.703 57.018 115.271 57.1177 115.799 57.317C116.337 57.5077 116.805 57.785 117.203 58.149C117.611 58.513 117.927 58.9463 118.152 59.449C118.378 59.943 118.49 60.4933 118.49 61.1C118.49 61.7067 118.378 62.2613 118.152 62.764C117.927 63.258 117.611 63.687 117.203 64.051C116.805 64.415 116.337 64.6967 115.799 64.896C115.271 65.0867 114.703 65.182 114.096 65.182C113.49 65.182 112.922 65.0867 112.393 64.896C111.865 64.6967 111.397 64.415 110.989 64.051C110.591 63.687 110.279 63.258 110.053 62.764C109.828 62.2613 109.715 61.7067 109.715 61.1C109.715 60.4933 109.828 59.943 110.053 59.449C110.279 58.9463 110.591 58.513 110.989 58.149C111.397 57.785 111.865 57.5077 112.393 57.317C112.922 57.1177 113.49 57.018 114.096 57.018ZM114.096 64.792C114.738 64.792 115.318 64.636 115.838 64.324C116.358 64.012 116.77 63.5787 117.073 63.024C117.377 62.4693 117.528 61.828 117.528 61.1C117.528 60.3633 117.377 59.722 117.073 59.176C116.77 58.6213 116.358 58.188 115.838 57.876C115.318 57.564 114.738 57.408 114.096 57.408C113.464 57.408 112.887 57.564 112.367 57.876C111.847 58.188 111.436 58.6213 111.132 59.176C110.829 59.722 110.677 60.3633 110.677 61.1C110.677 61.828 110.829 62.4693 111.132 63.024C111.436 63.5787 111.847 64.012 112.367 64.324C112.887 64.636 113.464 64.792 114.096 64.792Z" fill="white"/>
<defs>
<clipPath id="clip0_122_553">
<rect width="98" height="52" fill="white" transform="translate(6)"/>
</clipPath>
</defs>
</svg>
